<svg version="1.1" xmlns="http://www.w3.org/2000/svg" viewBox="0 0 1061.428571428572 440.71428571428544" width="1061.428571428572" height="440.71428571428544">
  <!-- svg-source:excalidraw -->
  
  <defs>
    <style class="style-fonts">
      @font-face {
        font-family: "Virgil";
        src: url("https://excalidraw.com/Virgil.woff2");
      }
      @font-face {
        font-family: "Cascadia";
        src: url("https://excalidraw.com/Cascadia.woff2");
      }
      @font-face {
        font-family: "Assistant";
        src: url("https://excalidraw.com/Assistant-Regular.woff2");
      }
    </style>
    
  </defs>
  <rect x="0" y="0" width="1061.428571428572" height="440.71428571428544" fill="#ffffff"></rect><g stroke-linecap="round" transform="translate(10 34.28571428571411) rotate(0 90.71428571428578 65)"><path d="M32 0 C76.95 -0.5, 121.09 -0.58, 149.43 0 M32 0 C68.15 -0.23, 103.24 -1.01, 149.43 0 M149.43 0 C170.21 -0.27, 180.23 12.53, 181.43 32 M149.43 0 C172.98 -1.49, 179.34 12.32, 181.43 32 M181.43 32 C183.8 56.86, 181.11 79.36, 181.43 98 M181.43 32 C180.83 54.86, 181.6 78.93, 181.43 98 M181.43 98 C181.87 119.68, 171.32 129.3, 149.43 130 M181.43 98 C179.66 120.08, 170.59 132.28, 149.43 130 M149.43 130 C110.83 128.03, 71.9 127.86, 32 130 M149.43 130 C126.41 131.1, 100.95 131.53, 32 130 M32 130 C12.07 129.83, -1.97 120.7, 0 98 M32 130 C12.2 128.91, 2.3 118.41, 0 98 M0 98 C0.18 75.57, -1.86 52.3, 0 32 M0 98 C-0.33 77.16, 1.01 55.92, 0 32 M0 32 C-1.95 10.84, 8.81 1.84, 32 0 M0 32 C-2.05 9.4, 11.41 -1.52, 32 0" stroke="#1e1e1e" stroke-width="2" fill="none"></path></g><g transform="translate(54.0059536525182 86.7857142857141) rotate(0 46.70833206176758 12.5)"><text x="46.70833206176758" y="0" font-family="Virgil, Segoe UI Emoji" font-size="20px" fill="#1e1e1e" text-anchor="middle" style="white-space: pre;" direction="ltr" dominant-baseline="text-before-edge">SCheduler</text></g><g stroke-linecap="round" transform="translate(382.8571428571431 24.285714285713993) rotate(0 116.42857142857156 82.85714285714289)"><path d="M32 0 C92.25 0.81, 152.48 2.2, 200.86 0 M32 0 C85.65 0.95, 138.78 -0.6, 200.86 0 M200.86 0 C220.44 -0.19, 234.21 11, 232.86 32 M200.86 0 C224.33 -1.53, 231.74 12.87, 232.86 32 M232.86 32 C230.92 54.26, 230.95 76.59, 232.86 133.71 M232.86 32 C233.45 55.53, 232.89 80.12, 232.86 133.71 M232.86 133.71 C231.33 154.31, 222.88 163.9, 200.86 165.71 M232.86 133.71 C234.92 155.08, 220.87 167.81, 200.86 165.71 M200.86 165.71 C149.86 163.99, 95.67 164.4, 32 165.71 M200.86 165.71 C149.38 165.75, 95.22 165.72, 32 165.71 M32 165.71 C10.02 167.71, 0.98 153.31, 0 133.71 M32 165.71 C11.59 164.9, -2.21 155.88, 0 133.71 M0 133.71 C0.81 110.64, -1.85 90.17, 0 32 M0 133.71 C-0.02 108.26, -0.95 84.04, 0 32 M0 32 C-1.86 12.62, 9.82 -1.65, 32 0 M0 32 C1.15 10.23, 9.97 -1.45, 32 0" stroke="#1e1e1e" stroke-width="2" fill="none"></path></g><g transform="translate(402.5190440586639 82.14285714285688) rotate(0 96.76667022705078 25)"><text x="96.76667022705078" y="0" font-family="Virgil, Segoe UI Emoji" font-size="20px" fill="#1e1e1e" text-anchor="middle" style="white-space: pre;" direction="ltr" dominant-baseline="text-before-edge">Fetch, insert data </text><text x="96.76667022705078" y="25" font-family="Virgil, Segoe UI Emoji" font-size="20px" fill="#1e1e1e" text-anchor="middle" style="white-space: pre;" direction="ltr" dominant-baseline="text-before-edge">and schedule again</text></g><g stroke-linecap="round"><g transform="translate(207.14285714285734 101.42857142857122) rotate(0 75 0)"><path d="M0.79 0.65 C26.03 0.61, 125.78 0.47, 150.47 0.2 M-0.26 -0.06 C24.95 -0.52, 124.52 -1.8, 149.77 -1.82" stroke="#1e1e1e" stroke-width="2" fill="none"></path></g><g transform="translate(207.14285714285734 101.42857142857122) rotate(0 75 0)"><path d="M126.35 6.92 C132.54 5.63, 136.93 1.18, 149.77 -1.82 M126.35 6.92 C131.96 5.47, 137.35 2.25, 149.77 -1.82" stroke="#1e1e1e" stroke-width="2" fill="none"></path></g><g transform="translate(207.14285714285734 101.42857142857122) rotate(0 75 0)"><path d="M126.22 -10.19 C132.49 -7.71, 136.92 -8.42, 149.77 -1.82 M126.22 -10.19 C131.77 -7.91, 137.19 -7.41, 149.77 -1.82" stroke="#1e1e1e" stroke-width="2" fill="none"></path></g></g><mask></mask><g mask="url(#mask-5cHvIa_K3eSSxh5ISxT7k)" stroke-linecap="round"><g transform="translate(508.57142857142844 211.42857142857122) rotate(0 -202.8571428571429 87.14285714285705)"><path d="M0.86 -1.07 C-5.34 30.97, 29.71 196.43, -38 193.33 C-105.72 190.24, -344.12 16.05, -405.44 -19.63 M-0.15 0.98 C-6.39 33.65, 29 198.16, -38.65 194.37 C-106.3 190.58, -344.87 13.96, -406.06 -21.78" stroke="#1e1e1e" stroke-width="2" fill="none"></path></g><g transform="translate(508.57142857142844 211.42857142857122) rotate(0 -202.8571428571429 87.14285714285705)"><path d="M-381.74 -15.97 C-389.25 -16.2, -394.72 -18.05, -406.06 -21.78 M-381.74 -15.97 C-389.4 -18.42, -397.36 -20, -406.06 -21.78" stroke="#1e1e1e" stroke-width="2" fill="none"></path></g><g transform="translate(508.57142857142844 211.42857142857122) rotate(0 -202.8571428571429 87.14285714285705)"><path d="M-391.16 -1.7 C-396.6 -5.32, -399.87 -10.49, -406.06 -21.78 M-391.16 -1.7 C-395.68 -8.81, -400.52 -15.12, -406.06 -21.78" stroke="#1e1e1e" stroke-width="2" fill="none"></path></g></g><mask id="mask-5cHvIa_K3eSSxh5ISxT7k"><rect x="0" y="0" fill="#fff" width="1014.2857142857142" height="525.7142857142856"></rect><rect x="356.91666412353516" y="380.71428571428555" fill="#000" width="226.1666717529297" height="50" opacity="1"></rect></mask><g transform="translate(356.91666412353516 380.71428571428555) rotate(0 -49.11621089617529 -82.9554867744128)"><text x="113.08333587646484" y="0" font-family="Virgil, Segoe UI Emoji" font-size="20px" fill="#1e1e1e" text-anchor="middle" style="white-space: pre;" direction="ltr" dominant-baseline="text-before-edge">re-schedules every 60 </text><text x="113.08333587646484" y="25" font-family="Virgil, Segoe UI Emoji" font-size="20px" fill="#1e1e1e" text-anchor="middle" style="white-space: pre;" direction="ltr" dominant-baseline="text-before-edge">seconds</text></g><g stroke-linecap="round"><g transform="translate(640.0000000000005 103.22656388656196) rotate(0 109.99999999999955 0.34651124447117354)"><path d="M-0.65 1.01 C35.87 0.85, 183.36 -0.44, 220.12 -0.44 M1.22 0.49 C37.49 0.4, 182.92 0.17, 219.24 0.5" stroke="#1e1e1e" stroke-width="2" fill="none"></path></g><g transform="translate(640.0000000000005 103.22656388656196) rotate(0 109.99999999999955 0.34651124447117354)"><path d="M195.72 8.98 C206.48 6.03, 212.04 2.43, 219.24 0.5 M195.72 8.98 C203.31 5.96, 210.64 2.51, 219.24 0.5" stroke="#1e1e1e" stroke-width="2" fill="none"></path></g><g transform="translate(640.0000000000005 103.22656388656196) rotate(0 109.99999999999955 0.34651124447117354)"><path d="M195.77 -8.12 C206.58 -4.44, 212.11 -1.41, 219.24 0.5 M195.77 -8.12 C203.23 -5.59, 210.55 -3.49, 219.24 0.5" stroke="#1e1e1e" stroke-width="2" fill="none"></path></g></g><mask></mask><g stroke-linecap="round" transform="translate(868.5714285714289 10) rotate(0 91.42857142857156 85.00000000000006)"><path d="M32 0 C56.08 -0.89, 81.64 -0.4, 150.86 0 M32 0 C57.07 1.24, 83.4 1.19, 150.86 0 M150.86 0 C171.64 0.74, 182.46 9.85, 182.86 32 M150.86 0 C172.3 0.74, 184.07 12.15, 182.86 32 M182.86 32 C184.26 64.79, 183.42 100.24, 182.86 138 M182.86 32 C182.46 66.55, 183.19 101.66, 182.86 138 M182.86 138 C181.11 159.44, 170.55 168.79, 150.86 170 M182.86 138 C182.83 157.65, 170.19 169.16, 150.86 170 M150.86 170 C106.66 169.56, 65.83 172.06, 32 170 M150.86 170 C115.45 171.33, 79.74 171.28, 32 170 M32 170 C9.61 171.95, -0.57 159.22, 0 138 M32 170 C10.12 169.55, -0.29 158.72, 0 138 M0 138 C1.15 114.04, 0.72 91.58, 0 32 M0 138 C0.54 110.6, 1.76 84.79, 0 32 M0 32 C-1.11 12.17, 10.26 0.85, 32 0 M0 32 C-1.88 11.72, 12.27 -0.93, 32 0" stroke="#1e1e1e" stroke-width="2" fill="none"></path></g><g transform="translate(916.4083328247075 82.5) rotate(0 43.59166717529297 12.5)"><text x="43.59166717529297" y="0" font-family="Virgil, Segoe UI Emoji" font-size="20px" fill="#1e1e1e" text-anchor="middle" style="white-space: pre;" direction="ltr" dominant-baseline="text-before-edge">CrateDB</text></g></svg>